<?xml version="1.0" standalone="yes"?>
<svg xmlns="http://www.w3.org/2000/svg" width="338" height="325">
<path style="fill:#ffffff; stroke:none;" d="M0 0L0 325L338 325L338 0L0 0z"/>
<path style="fill:#1a3153; stroke:none;" d="M160 42.4244C153.976 43.2153 147.991 43.2437 142 44.4491C122.103 48.4523 103.636 57.5902 88 70.4637C29.7546 118.417 33.932 212.402 93 257.497C120.629 278.59 154.246 284.513 188 279.715C201.075 277.856 213.517 272.512 225 266.23C236.745 259.805 247.288 251.134 255.999 241C274.545 219.424 285.992 190.665 285.992 162C285.992 111.283 251.97 64.3108 204 48.3333C190.715 43.9084 174.001 40.586 160 42.4244z"/>
<path style="fill:#ffffff; stroke:none;" d="M140 150C145.265 147.283 154.277 141.547 154.758 135C155.191 129.122 150.66 122.247 148.421 117C146.606 112.745 145.008 105.678 140.786 103.179C134.48 99.4457 121.472 104.568 115 106.45C112.3 107.235 109.417 107.874 107.603 110.228C105.359 113.142 105.984 117.555 106.001 121C106.049 131.069 108.326 141.541 111.692 151C126.181 191.711 162.646 217.8 205 221.83C208.541 222.167 213.597 222.713 216.786 220.821C222.235 217.588 222.951 206.635 224.207 201C225.282 196.176 227.694 189.687 223.566 185.638C221.293 183.407 217.862 182.38 215 181.15C208.24 178.246 196.515 170.125 189.039 174.028C184.367 176.467 181.234 186.468 175.575 186.402C171.886 186.359 166.753 181.652 164 179.482C154.184 171.748 144.975 161.546 140 150z"/>
</svg>
